<svg width="64" height="64" viewBox="0 0 64 64" xmlns="http://www.w3.org/2000/svg">
  <defs>
    <radialGradient id="bg" cx="50%" cy="40%" r="70%">
      <stop offset="0" stop-color="#7a0d18"/>
      <stop offset="1" stop-color="#2c0509"/>
    </radialGradient>
    <linearGradient id="gold" x1="0" y1="0" x2="0" y2="1">
      <stop offset="0" stop-color="#f6e4a8"/>
      <stop offset="0.5" stop-color="#d4af37"/>
      <stop offset="1" stop-color="#9a7615"/>
    </linearGradient>
  </defs>
  <rect width="64" height="64" rx="14" fill="url(#bg)"/>
  <g fill="none" stroke="url(#gold)" stroke-width="1.6">
    <circle cx="32" cy="32" r="24" stroke-opacity="0.5"/>
    <g stroke-opacity="0.9">
      <path d="M32 12 C39 22 39 30 32 36 C25 30 25 22 32 12 Z"/>
      <path d="M32 12 C39 22 39 30 32 36 C25 30 25 22 32 12 Z" transform="rotate(60 32 32)"/>
      <path d="M32 12 C39 22 39 30 32 36 C25 30 25 22 32 12 Z" transform="rotate(120 32 32)"/>
      <path d="M32 12 C39 22 39 30 32 36 C25 30 25 22 32 12 Z" transform="rotate(180 32 32)"/>
      <path d="M32 12 C39 22 39 30 32 36 C25 30 25 22 32 12 Z" transform="rotate(240 32 32)"/>
      <path d="M32 12 C39 22 39 30 32 36 C25 30 25 22 32 12 Z" transform="rotate(300 32 32)"/>
    </g>
  </g>
  <circle cx="32" cy="32" r="5" fill="url(#gold)"/>
</svg>
